<svg width="15" height="15" viewBox="0 0 15 15" fill="none" xmlns="http://www.w3.org/2000/svg">
<path d="M6.94023 10.9364V11.0364H7.04023H7.95898H8.05898V10.9364V2.54303L10.027 4.68503L10.1013 4.76592L10.1748 4.68436L10.8244 3.96436L10.8854 3.89676L10.8238 3.82972L7.57325 0.291719L7.49961 0.211568L7.42597 0.291719L4.17543 3.82972L4.11375 3.89686L4.17492 3.96446L4.82539 4.68346L4.89898 4.7648L4.97319 4.68403L6.94023 2.54303V10.9364ZM1.06836 10.2214H0.968359V10.3214V12.7444C0.968359 13.2268 1.11785 13.636 1.4201 13.965C1.72224 14.2939 2.10186 14.4594 2.55214 14.4594H12.4471C12.8974 14.4594 13.2773 14.2935 13.58 13.964C13.8817 13.6357 14.0309 13.2267 14.0309 12.7444V10.3214V10.2214H13.9309H13.0121H12.9121V10.3214V12.7444C12.9121 12.8692 12.8652 12.9868 12.7621 13.0997C12.6581 13.2123 12.5536 13.2594 12.4471 13.2594H2.55214C2.4456 13.2594 2.34118 13.2123 2.23713 13.0997C2.13404 12.9868 2.08711 12.8692 2.08711 12.7444V10.3214V10.2214H1.98711H1.06836Z" fill="#22492B" stroke="#22492B" stroke-width="0.2"/>
</svg>
