<svg width="45" height="45" viewBox="0 0 45 45" fill="none" xmlns="http://www.w3.org/2000/svg">
<circle cx="22.5" cy="22.5" r="22.5" fill="#6C549F"/>
<g clip-path="url(#clip0_1771_13072)">
<path d="M29.1632 11.752C30.1582 11.752 31.1125 12.1472 31.8161 12.8508C32.5197 13.5544 32.915 14.5087 32.915 15.5037V30.5109C32.915 31.5059 32.5197 32.4602 31.8161 33.1638C31.1125 33.8674 30.1582 34.2626 29.1632 34.2626H14.1561C13.161 34.2626 12.2068 33.8674 11.5032 33.1638C10.7996 32.4602 10.4043 31.5059 10.4043 30.5109V15.5037C10.4043 14.5087 10.7996 13.5544 11.5032 12.8508C12.2068 12.1472 13.161 11.752 14.1561 11.752H29.1632ZM29.1632 14.2531H14.1561C13.8244 14.2531 13.5063 14.3849 13.2718 14.6194C13.0372 14.854 12.9055 15.1721 12.9055 15.5037V30.5109C12.9055 30.8425 13.0372 31.1606 13.2718 31.3952C13.5063 31.6297 13.8244 31.7615 14.1561 31.7615H29.1632C29.4949 31.7615 29.813 31.6297 30.0475 31.3952C30.282 31.1606 30.4138 30.8425 30.4138 30.5109V15.5037C30.4138 15.1721 30.282 14.854 30.0475 14.6194C29.813 14.3849 29.4949 14.2531 29.1632 14.2531ZM16.6573 20.5061C16.9636 20.5062 17.2592 20.6186 17.4881 20.8222C17.717 21.0257 17.8633 21.3062 17.8991 21.6104L17.9079 21.7567V28.0097C17.9075 28.3284 17.7855 28.635 17.5666 28.8668C17.3478 29.0986 17.0488 29.2381 16.7306 29.2567C16.4124 29.2754 16.099 29.1719 15.8546 28.9673C15.6102 28.7627 15.4531 28.4725 15.4154 28.156L15.4067 28.0097V21.7567C15.4067 21.425 15.5384 21.1069 15.773 20.8724C16.0075 20.6379 16.3256 20.5061 16.6573 20.5061ZM20.409 19.2555C20.7019 19.2555 20.9855 19.3582 21.2104 19.5459C21.4353 19.7335 21.5872 19.9941 21.6396 20.2823C21.8913 20.1363 22.1515 20.0056 22.4188 19.8908C23.2529 19.5344 24.5022 19.3381 25.6303 19.692C26.2218 19.8796 26.8158 20.2297 27.2561 20.8263C27.65 21.3578 27.8626 22.0043 27.9051 22.7309L27.9126 23.0073V28.0097C27.9123 28.3284 27.7902 28.635 27.5714 28.8668C27.3526 29.0986 27.0535 29.2381 26.7353 29.2567C26.4171 29.2754 26.1038 29.1719 25.8593 28.9673C25.6149 28.7627 25.4578 28.4725 25.4202 28.156L25.4114 28.0097V23.0073C25.4114 22.5946 25.3114 22.402 25.2463 22.3132C25.153 22.1971 25.0244 22.1146 24.8799 22.0781C24.4447 21.9405 23.8182 22.0131 23.4017 22.1907C22.7764 22.4583 22.2037 22.8785 21.8135 23.2674L21.6596 23.4325V28.0097C21.6593 28.3284 21.5372 28.635 21.3184 28.8668C21.0996 29.0986 20.8005 29.2381 20.4823 29.2567C20.1641 29.2754 19.8508 29.1719 19.6064 28.9673C19.3619 28.7627 19.2049 28.4725 19.1672 28.156L19.1585 28.0097V20.5061C19.1585 20.1744 19.2902 19.8563 19.5247 19.6218C19.7593 19.3873 20.0774 19.2555 20.409 19.2555ZM16.6573 16.7543C16.9889 16.7543 17.307 16.8861 17.5416 17.1206C17.7761 17.3552 17.9079 17.6732 17.9079 18.0049C17.9079 18.3366 17.7761 18.6547 17.5416 18.8892C17.307 19.1238 16.9889 19.2555 16.6573 19.2555C16.3256 19.2555 16.0075 19.1238 15.773 18.8892C15.5384 18.6547 15.4067 18.3366 15.4067 18.0049C15.4067 17.6732 15.5384 17.3552 15.773 17.1206C16.0075 16.8861 16.3256 16.7543 16.6573 16.7543Z" fill="white"/>
</g>
<defs>
<clipPath id="clip0_1771_13072">
<rect width="30.0143" height="30.0143" fill="white" transform="translate(6.65234 8)"/>
</clipPath>
</defs>
</svg>
