<svg width="46" height="45" viewBox="0 0 46 45" fill="none" xmlns="http://www.w3.org/2000/svg">
<circle cx="23.1665" cy="22.5" r="22.5" fill="#6C549F"/>
<path d="M28.6887 33.9725L12.3472 12.9625C12.261 12.8516 12.2078 12.7188 12.1934 12.5791C12.179 12.4394 12.2042 12.2984 12.2659 12.1723C12.3277 12.0462 12.4236 11.9399 12.5427 11.8656C12.6619 11.7913 12.7995 11.7519 12.9399 11.752H16.0414C16.1556 11.7521 16.2682 11.7783 16.3707 11.8286C16.4732 11.8789 16.5629 11.9519 16.6329 12.0421L32.9745 33.0521C33.0606 33.163 33.1139 33.2958 33.1282 33.4355C33.1426 33.5752 33.1175 33.7162 33.0557 33.8423C32.994 33.9684 32.898 34.0747 32.7789 34.149C32.6597 34.2233 32.5221 34.2627 32.3817 34.2626H29.2802C29.166 34.2625 29.0534 34.2363 28.9509 34.186C28.8484 34.1357 28.7587 34.0627 28.6887 33.9725Z" stroke="white" stroke-width="1.87589"/>
<path d="M32.6658 11.752L12.6562 34.2626" stroke="white" stroke-width="1.87589" stroke-linecap="round"/>
</svg>
