<svg width="28" height="28" viewBox="0 0 28 28" fill="none" xmlns="http://www.w3.org/2000/svg">
<g clip-path="url(#clip0_100_999)">
<path d="M11.6543 3.64594C12.6357 2.93294 13.9645 2.93293 14.9459 3.64594L22.3061 8.99346C23.2875 9.70646 23.6981 10.9703 23.3233 12.124L20.5119 20.7764C20.1371 21.9301 19.062 22.7112 17.849 22.7112H8.75122C7.53819 22.7112 6.46311 21.9301 6.08826 20.7764L3.2769 12.124C2.90206 10.9703 3.3127 9.70647 4.29406 8.99346L11.6543 3.64594Z" fill="#4460F1"/>
<g filter="url(#filter0_b_100_999)">
<path d="M19.8033 6.42817C20.7081 6.33307 21.5712 6.8314 21.9412 7.66252L25.3561 15.3324C25.7261 16.1635 25.5189 17.1384 24.8428 17.7471L18.6036 23.365C17.9275 23.9737 16.9363 24.0779 16.1484 23.623L8.87751 19.4252C8.08962 18.9703 7.68425 18.0598 7.8734 17.1699L9.61897 8.95764C9.80812 8.06775 10.5488 7.40086 11.4536 7.30576L19.8033 6.42817Z" fill="#71DCFB" fill-opacity="0.4"/>
</g>
<path fill-rule="evenodd" clip-rule="evenodd" d="M19.7765 10.2749C19.8325 10.3257 19.8624 10.383 19.865 10.4481L20.6489 17.2399C20.6541 17.305 20.6372 17.3597 20.5955 17.404C20.5551 17.4509 20.5018 17.4743 20.4366 17.4743H15.8923L15.8962 14.943C15.8988 14.7164 15.7959 14.5524 15.5863 14.4521C15.5798 14.4495 15.5746 14.4482 15.5681 14.4482C15.3532 14.3544 15.1592 14.387 14.9886 14.5459C14.986 14.5459 14.9821 14.5472 14.9795 14.5498L13.4222 16.0316L14.068 10.4481C14.0745 10.383 14.1019 10.3257 14.1527 10.2749C14.2061 10.2281 14.2647 10.2046 14.3298 10.2046H15.1267C15.1319 9.71243 15.3102 9.28924 15.6618 8.93507C16.0238 8.57829 16.4587 8.3999 16.9665 8.3999C17.477 8.3999 17.9106 8.57829 18.2673 8.93507C18.6189 9.28924 18.7986 9.71243 18.8077 10.2046H19.5994C19.6645 10.2046 19.7231 10.2281 19.7765 10.2749ZM18.3468 10.2059C18.3416 9.84003 18.2074 9.52623 17.9444 9.2632C17.6736 8.99106 17.348 8.85564 16.9665 8.85564C16.5824 8.85564 16.2569 8.99236 15.9886 9.2632C15.7269 9.52623 15.5928 9.84003 15.5863 10.2059H18.3468ZM16.9678 12.6695C16.5538 12.6695 16.2009 12.5237 15.9053 12.232C15.6097 11.9364 15.4626 11.581 15.4626 11.1643C15.4626 11.1174 15.4444 11.0757 15.4092 11.0406H15.417C15.378 11.008 15.335 10.9924 15.2881 10.9924C15.2412 10.9924 15.2035 11.008 15.1735 11.0406C15.1384 11.0757 15.1201 11.1174 15.1201 11.1643C15.1201 11.6747 15.3011 12.1122 15.6644 12.4781C16.0212 12.8349 16.4561 13.0133 16.9691 13.0133C17.4796 13.0133 17.9171 12.8349 18.283 12.4781C18.6397 12.1122 18.8181 11.6747 18.8181 11.1643C18.8181 11.1174 18.7999 11.0757 18.7647 11.0406H18.7686C18.7296 11.008 18.6866 10.9924 18.6397 10.9924C18.5929 10.9924 18.5525 11.008 18.5199 11.0406V11.0367C18.4874 11.0757 18.4718 11.1187 18.4718 11.1656C18.4718 11.581 18.3259 11.9364 18.0343 12.232C17.7387 12.5237 17.3832 12.6695 16.9678 12.6695ZM15.4314 14.7712C15.5057 14.8076 15.5421 14.8649 15.5421 14.9444L15.533 18.964C15.533 19.0473 15.4965 19.1046 15.4262 19.1371C15.3546 19.1697 15.2856 19.1593 15.2179 19.1059L14.3377 18.3051L13.8728 19.3624C13.8377 19.4444 13.7778 19.5056 13.6918 19.5434C13.6007 19.576 13.5134 19.572 13.4314 19.5343C13.3481 19.5017 13.2895 19.4392 13.2543 19.3481C13.2192 19.2621 13.2192 19.1775 13.2543 19.0955L13.7283 18.0199L12.4236 17.9001C12.3415 17.891 12.2882 17.8507 12.2647 17.7764C12.2348 17.7022 12.2504 17.6358 12.3129 17.5772L15.2231 14.8063C15.2856 14.7503 15.3546 14.7386 15.4314 14.7712Z" fill="white"/>
</g>
<defs>
<filter id="filter0_b_100_999" x="4.32715" y="2.9165" width="24.7104" height="24.4878" filterUnits="userSpaceOnUse" color-interpolation-filters="sRGB">
<feFlood flood-opacity="0" result="BackgroundImageFix"/>
<feGaussianBlur in="BackgroundImageFix" stdDeviation="1.75"/>
<feComposite in2="SourceAlpha" operator="in" result="effect1_backgroundBlur_100_999"/>
<feBlend mode="normal" in="SourceGraphic" in2="effect1_backgroundBlur_100_999" result="shape"/>
</filter>
<clipPath id="clip0_100_999">
<rect width="28" height="28" fill="white"/>
</clipPath>
</defs>
</svg>
