<svg width="28" height="28" viewBox="0 0 28 28" fill="none" xmlns="http://www.w3.org/2000/svg">
<g clip-path="url(#clip0_99_996)">
<path d="M10.2689 5.6001C11.6161 3.26677 14.9839 3.26677 16.3311 5.6001L21.787 15.0501C23.1342 17.3834 21.4503 20.3001 18.756 20.3001H7.84405C5.14974 20.3001 3.4658 17.3834 4.81295 15.0501L10.2689 5.6001Z" fill="#4460F1"/>
<g filter="url(#filter0_b_99_996)">
<path d="M17.7666 7.72102C20.13 6.42728 23.0076 8.1771 22.9463 10.8707L22.6982 21.7798C22.6369 24.4734 19.6827 26.0906 17.3806 24.6907L8.05713 19.0213C5.75504 17.6214 5.83161 14.2544 8.19498 12.9607L17.7666 7.72102Z" fill="#71DCFB" fill-opacity="0.4"/>
</g>
<path fill-rule="evenodd" clip-rule="evenodd" d="M11.7431 12.682L15.9431 10.5786C16.0417 10.5292 16.1579 10.5292 16.2565 10.5786L20.4565 12.682C20.575 12.7413 20.6498 12.8625 20.6498 12.9949V15.68C20.6498 17.3778 19.9245 18.9948 18.6564 20.1238L16.3325 22.1928C16.1999 22.311 15.9997 22.311 15.8671 22.1928L13.5432 20.1238C12.2751 18.9948 11.5498 17.3778 11.5498 15.68V12.9949C11.5498 12.8625 11.6246 12.7413 11.7431 12.682ZM13.3871 13.8354L16.1292 12.051L19.0456 13.5335L19.0431 17.0989L16.4778 18.5848L13.5614 17.1023L13.3871 13.8354ZM16.2017 13.1938L14.5013 14.3288L14.6125 16.4115L16.424 17.3591L16.4663 18.3223L18.8407 16.917L18.8601 13.6679L18.0133 14.1414L16.2017 13.1938ZM16.4458 15.3746L16.5449 17.2322L18.0378 16.3174L17.9285 14.2676L16.4458 15.3746Z" fill="white"/>
</g>
<defs>
<filter id="filter0_b_99_996" x="2.87549" y="3.78564" width="23.5718" height="24.9194" filterUnits="userSpaceOnUse" color-interpolation-filters="sRGB">
<feFlood flood-opacity="0" result="BackgroundImageFix"/>
<feGaussianBlur in="BackgroundImageFix" stdDeviation="1.75"/>
<feComposite in2="SourceAlpha" operator="in" result="effect1_backgroundBlur_99_996"/>
<feBlend mode="normal" in="SourceGraphic" in2="effect1_backgroundBlur_99_996" result="shape"/>
</filter>
<clipPath id="clip0_99_996">
<rect width="28" height="28" fill="white"/>
</clipPath>
</defs>
</svg>
