<svg width="28" height="28" viewBox="0 0 28 28" fill="none" xmlns="http://www.w3.org/2000/svg">
<g filter="url(#filter0_b_99_997)">
<path d="M20.7687 15.0273C20.5933 14.7477 20.3441 14.4682 20.021 14.2911C19.7625 14.1606 19.5964 13.9463 19.4487 13.6947C18.9779 12.8933 19.2548 11.8403 20.0394 11.365C20.9626 10.8339 21.258 9.65037 20.7226 8.72782L20.1041 7.62821C19.5779 6.70565 18.424 6.37949 17.5101 6.91998C16.6978 7.36728 15.6546 7.06908 15.1839 6.27699C15.0362 6.01606 14.9531 5.7365 14.9715 5.45694C14.9992 5.09351 14.8885 4.74871 14.7223 4.46915C14.3807 3.89139 13.7623 3.5 13.0791 3.5H11.7776C11.1037 3.51864 10.4852 3.89139 10.1436 4.46915C9.96824 4.74871 9.8667 5.09351 9.88516 5.45694C9.90362 5.7365 9.82054 6.01606 9.67284 6.27699C9.20205 7.06908 8.15893 7.36728 7.35582 6.91998C6.4327 6.37949 5.28804 6.70565 4.75263 7.62821L4.13414 8.72782C3.60797 9.65037 3.90336 10.8339 4.81725 11.365C5.6019 11.8403 5.87883 12.8933 5.41728 13.6947C5.26035 13.9463 5.09418 14.1606 4.83571 14.2911C4.52185 14.4682 4.24492 14.7477 4.09722 15.0273C3.75567 15.6051 3.77413 16.3319 4.11568 16.9376L4.75263 18.0559C5.09418 18.6523 5.73114 19.025 6.39578 19.025C6.70964 19.025 7.07889 18.9318 7.37428 18.7455C7.60506 18.5871 7.882 18.5311 8.18663 18.5311C9.10051 18.5311 9.8667 19.3046 9.88516 20.2272C9.88516 21.2988 10.7344 22.1375 11.8052 22.1375H13.0607C14.1223 22.1375 14.9715 21.2988 14.9715 20.2272C14.9992 19.3046 15.7654 18.5311 16.6793 18.5311C16.9747 18.5311 17.2516 18.5871 17.4916 18.7455C17.787 18.9318 18.1471 19.025 18.4701 19.025C19.1256 19.025 19.7625 18.6523 20.1041 18.0559L20.7502 16.9376C21.0826 16.3133 21.1103 15.6051 20.7687 15.0273" fill="#4460F1"/>
</g>
<g filter="url(#filter1_b_99_997)">
<circle cx="15.9248" cy="14.5249" r="7.875" fill="#71DCFB" fill-opacity="0.4"/>
</g>
<path d="M18.1983 9.55958C15.4929 8.33931 12.3106 9.54321 11.0903 12.2485C9.87007 14.9539 11.074 18.1362 13.7793 19.3565C16.4846 20.5767 19.667 19.3728 20.8872 16.6675C21.4987 15.3118 21.5015 13.8363 21.0115 12.5479" stroke="white" stroke-width="0.7" stroke-linecap="round"/>
<path d="M19.5531 14.1256L18.3685 13.6753L19.7183 11.1895C19.9508 10.7632 19.464 10.3298 19.0669 10.587L14.0087 13.9345C13.7026 14.1376 13.7494 14.6167 14.0878 14.7454L15.2725 15.1957L13.9227 17.6815C13.6902 18.1077 14.177 18.5412 14.5741 18.284L19.6382 14.9209C19.9597 14.7237 19.907 14.2601 19.5531 14.1256Z" fill="white"/>
<defs>
<filter id="filter0_b_99_997" x="-0.699902" y="-1.05" width="26.2626" height="27.7377" filterUnits="userSpaceOnUse" color-interpolation-filters="sRGB">
<feFlood flood-opacity="0" result="BackgroundImageFix"/>
<feGaussianBlur in="BackgroundImageFix" stdDeviation="2.275"/>
<feComposite in2="SourceAlpha" operator="in" result="effect1_backgroundBlur_99_997"/>
<feBlend mode="normal" in="SourceGraphic" in2="effect1_backgroundBlur_99_997" result="shape"/>
</filter>
<filter id="filter1_b_99_997" x="6.6498" y="5.2499" width="18.55" height="18.55" filterUnits="userSpaceOnUse" color-interpolation-filters="sRGB">
<feFlood flood-opacity="0" result="BackgroundImageFix"/>
<feGaussianBlur in="BackgroundImageFix" stdDeviation="0.7"/>
<feComposite in2="SourceAlpha" operator="in" result="effect1_backgroundBlur_99_997"/>
<feBlend mode="normal" in="SourceGraphic" in2="effect1_backgroundBlur_99_997" result="shape"/>
</filter>
</defs>
</svg>
