<svg width="16" height="14" viewBox="0 0 16 14" fill="none" xmlns="http://www.w3.org/2000/svg">
<path d="M2.61328 8.50056V8.14526C2.61328 4.61326 5.05855 1.75 8.07494 1.75C11.0913 1.75 13.5366 4.61326 13.5366 8.14526V8.50056" stroke="white" stroke-width="1.63931" stroke-linecap="round" stroke-linejoin="round"/>
<path d="M1.25 11.299V9.96535C1.25 9.31325 1.67641 8.74478 2.28425 8.5866L2.61541 8.50041L3.47186 8.27757C3.73039 8.21035 3.98083 8.41386 3.98083 8.6912V12.5732C3.98083 12.8505 3.73039 13.0541 3.47186 12.9868L2.28425 12.6778C1.67641 12.5196 1.25 11.9512 1.25 11.299Z" stroke="white" stroke-width="1.63931" stroke-linecap="round" stroke-linejoin="round"/>
<path d="M14.9047 11.299V9.96535C14.9047 9.31325 14.4782 8.74478 13.8704 8.5866L13.5392 8.50041L12.6828 8.27757C12.4242 8.21035 12.1738 8.41386 12.1738 8.6912V12.5732C12.1738 12.8505 12.4242 13.0541 12.6828 12.9868L13.8704 12.6778C14.4782 12.5196 14.9047 11.9512 14.9047 11.299Z" stroke="white" stroke-width="1.63931" stroke-linecap="round" stroke-linejoin="round"/>
</svg>
