<svg width="304" height="205" viewBox="0 0 304 205" fill="none" xmlns="http://www.w3.org/2000/svg">
<g filter="url(#filter0_b_12_4917)">
<g clip-path="url(#clip0_12_4917)">
<rect y="0.0358887" width="304" height="204" rx="20" fill="#F8F8F9" fill-opacity="0.1"/>
<g opacity="0.5">
<mask id="mask0_12_4917" style="mask-type:luminance" maskUnits="userSpaceOnUse" x="192" y="-54" width="159" height="155">
<path d="M293.15 100.879L192.88 7.73978L250.157 -53.9214L350.426 39.2177L293.15 100.879Z" fill="white"/>
</mask>
<g mask="url(#mask0_12_4917)">
<path d="M281.299 18.7661L281.835 15.5045L274.956 16.2894L281.299 18.7661ZM282.321 23.2301L281.15 25.0185L282.007 25.1579L282.321 23.2301ZM300.132 -7.4756L293.115 -7.29924L302.442 -4.41478L300.132 -7.4756ZM292.17 15.5298L290.65 13.3333L291.64 16.2849L292.17 15.5298ZM299.515 1.62135L281.9 -1.32446L287.369 15.5096L299.515 1.62135ZM252.183 20.3771L257.959 22.6149L258.021 15.5456L252.183 20.3771ZM266.255 19.9554L262.708 18.7162L261.927 21.1585L266.255 19.9554ZM307.525 20.8384L296.039 23.6093L299.408 24.8184L307.525 20.8384ZM271.394 6.92553L269.955 6.61844L266.714 11.0111L271.394 6.92553ZM300.929 31.0039L301.513 27.4469L299.35 30.7499L300.929 31.0039ZM278.578 13.2938L281.48 13.3544L278.987 11.9166L278.578 13.2938ZM302.323 14.6771L301.499 13.4844L302.036 15.0845L302.323 14.6771ZM274.781 14.9313L271.052 15.3577L274.489 16.6997L274.781 14.9313ZM264.012 56.4824L264.109 48.0525L251.961 38.6063L264.012 56.4824ZM307.964 26.7096L304.155 26.6277L303.875 34.9055L307.964 26.7096ZM281.439 39.7689L269.26 45.7912L280.576 47.0899L281.439 39.7689ZM288.377 27.7314L286.373 33.6937L291.621 25.9649L288.377 27.7314ZM240.83 -24.8218L241.413 -28.3792L239.25 -25.0762L240.83 -24.8218ZM243.775 -20.9202L247.864 -29.1165L244.055 -29.1985L243.775 -20.9202ZM226.702 -5.29455L227.249 -6.12852L227.338 -6.03341L227.442 -6.42307L227.875 -7.08646L227.633 -7.12428L229.248 -13.0498L222.885 -10.7793L226.9 -6.49877L226.702 -5.29455ZM251.735 -34.8087L254.088 -41.8234L247.915 -32.728L251.735 -34.8087ZM244.767 -39.6118L241.865 -37.3646L245.576 -39.0948L244.767 -39.6118ZM216.275 -3.85355L221.484 -15.0968L215.324 -16.2567L214.717 -15.6027L216.275 -3.85355ZM226.274 -22.132L231.518 -29.8636L228.277 -28.0948L226.274 -22.132ZM251.86 -51.2832L247.385 -50.7725L246.556 -49.8796L251.318 -48.0215L251.86 -51.2832ZM235.612 -16.6725L240.298 -13.4848L236.236 -18.4884L235.612 -16.6725ZM272.536 -14.4439L268.139 -12.2859L274.365 -13.7885L272.536 -14.4439ZM278.809 -8.25455L268.136 -5.29053L276.882 -2.23811L278.809 -8.25455ZM262.657 15.3135L266.768 9.7438L260.836 14.922L262.657 15.3135ZM265.225 -8.63173L255.555 -0.192181L258.529 0.44479L265.225 -8.63173ZM264.147 -34.2426L254.889 -26.5851L264.043 -23.0353L264.147 -34.2426ZM271.502 -19.6741L269.582 -27.8872L268.469 -24.4126L271.502 -19.6741ZM215.289 24.073L219.705 25.7164L228.912 9.40719L215.289 24.073ZM254.844 5.78369L248.058 5.64647L253.889 9.00691L254.844 5.78369ZM306.534 68.4849L296.605 83.1218L302.747 79.772L306.534 68.4849ZM282.985 45.0469L287.437 49.7923L289.347 42.7758L282.985 45.0469ZM235.849 16.144L236.65 28.0332L247.711 19.6261L235.849 16.144ZM236.487 32.3794L240.887 30.2237L234.658 31.7236L236.487 32.3794ZM297.463 65.3301L300.521 62.8937L294.96 60.3695L297.463 65.3301ZM292.724 76.6989L301.984 69.0437L292.829 65.4946L292.724 76.6989ZM299.735 52.4305L300.528 50.1281L294.587 46.0856L299.735 52.4305ZM307.865 35.5439L304.789 45.8514L304.581 44.3055L302.471 48.8639L305.256 49.3894L304.888 46.5994L314.749 43.3499L307.865 35.5439ZM204.648 5.6739L210.827 6.76955L209.656 0.0428898L204.648 5.6739ZM295.711 39.1532L300.398 42.3409L296.336 37.3378L295.711 39.1532ZM216.191 -3.00087L224.589 7.34238L225.878 3.59097L216.191 -3.00087ZM204.377 0.918678L205.201 2.1114L204.667 0.508336L204.377 0.918678ZM245.156 -6.43674L244.481 -11.5201L242.371 -6.96219L245.156 -6.43674ZM239.419 2.26026L235.982 0.918713L235.691 2.68599L239.419 2.26026ZM230.063 -2.46582L228.697 5.86455L233.757 -1.86888L230.063 -2.46582ZM228.483 19.4343L229.239 20.7273L229.185 19.0658L228.483 19.4343ZM234.488 -9.74006L239.635 -3.39561L240.428 -5.69805L234.488 -9.74006ZM287.994 59.1405L285.939 62.7195L293.442 65.0204L287.994 59.1405ZM332.279 46.8076L332.967 42.6089L330.415 46.5051L332.279 46.8076ZM321.754 54.5941L324.611 44.0653L318.6 55.278L321.754 54.5941ZM325.506 53.0433L326.363 53.1822L326.679 51.2514L325.506 53.0433ZM318.283 40.3245L321.72 41.6665L322.011 39.8993L318.283 40.3245ZM318.459 25.3141L316.466 25.4725L316.694 26.3044L318.459 25.3141ZM341.734 40.042L340.914 38.8521L341.448 40.4546L341.734 40.042ZM330.308 30.4001L329.71 30.0432L328.939 31.5528L330.308 30.4001ZM326.886 20.6627L321.958 22.0925L323.165 39.4308L326.886 20.6627ZM307.841 77.5054L312.101 72.8595L306.138 71.6837L307.841 77.5054ZM341.982 48.107L342.927 44.6335L335.43 47.3094L339.093 51.2162L341.982 48.107ZM287.662 86.586L285.309 93.6007L291.481 84.5054L287.662 86.586ZM294.701 80.2168L291.478 78.0189L294.275 81.466L294.701 80.2168ZM313.261 61.2704L310.447 60.108L307.914 66.8796L313.261 61.2704ZM293.99 88.6215L303.352 89.6934L307.966 84.7262L308.346 81.5186L293.99 88.6215ZM318.566 60.727L320.544 61.8691L320.868 60.775L318.566 60.727ZM277.255 72.591L292.416 68.9345L281.701 74.1854L277.255 72.591Z" fill="#8E9DC4"/>
</g>
</g>
</g>
</g>
<defs>
<filter id="filter0_b_12_4917" x="-5" y="-4.96411" width="314" height="214" filterUnits="userSpaceOnUse" color-interpolation-filters="sRGB">
<feFlood flood-opacity="0" result="BackgroundImageFix"/>
<feGaussianBlur in="BackgroundImageFix" stdDeviation="2.5"/>
<feComposite in2="SourceAlpha" operator="in" result="effect1_backgroundBlur_12_4917"/>
<feBlend mode="normal" in="SourceGraphic" in2="effect1_backgroundBlur_12_4917" result="shape"/>
</filter>
<clipPath id="clip0_12_4917">
<rect y="0.0358887" width="304" height="204" rx="20" fill="white"/>
</clipPath>
</defs>
</svg>
