<svg width="1440" height="1616" viewBox="0 0 1440 1616" fill="none" xmlns="http://www.w3.org/2000/svg">
<g opacity="0.7">
<path d="M1324.88 1465.46C1139.27 1251 738.961 1234.49 481.544 1047.31C75.4678 752.036 176.8 224.194 -11.5761 252.198" stroke="url(#paint0_linear_18_5440)" stroke-width="2.09174" stroke-miterlimit="10"/>
<path d="M1299.22 1523.5C1113.62 1309.04 713.309 1292.53 455.891 1105.35C49.8152 810.071 151.147 282.229 -37.2287 310.234" stroke="url(#paint1_linear_18_5440)" stroke-width="2.09174" stroke-miterlimit="10"/>
<path d="M1365.45 1410.85C1179.84 1196.39 779.531 1179.88 522.114 992.702C116.038 697.424 217.37 169.582 28.994 197.586" stroke="url(#paint2_linear_18_5440)" stroke-width="2.09174" stroke-miterlimit="10"/>
<path d="M1406.02 1356.23C1220.41 1141.78 820.103 1125.27 562.686 938.089C156.61 642.811 257.942 114.969 69.5658 142.973" stroke="url(#paint3_linear_18_5440)" stroke-width="2.09174" stroke-miterlimit="10"/>
<path d="M1446.59 1301.62C1260.98 1087.17 860.671 1070.66 603.254 883.478C197.177 588.2 298.51 60.3579 110.133 88.3624" stroke="url(#paint4_linear_18_5440)" stroke-width="2.09174" stroke-miterlimit="10"/>
<path d="M1487.16 1247.01C1301.55 1032.55 901.24 1016.05 643.823 828.865C237.746 533.587 339.079 5.7446 150.702 33.7491" stroke="url(#paint5_linear_18_5440)" stroke-width="2.09174" stroke-miterlimit="10"/>
<g opacity="0.4" filter="url(#filter0_f_18_5440)">
<path d="M372.971 894.13C352.645 939.265 681.077 1138.59 941.824 1256.02C1202.57 1373.45 1395.91 1426.53 1416.24 1381.4C1436.57 1336.26 1276.18 1210 1015.43 1092.58C754.686 975.147 393.298 848.995 372.971 894.13Z" fill="url(#paint6_linear_18_5440)"/>
</g>
<g filter="url(#filter1_f_18_5440)">
<path d="M119.624 323.097C94.331 346.995 107.812 547.995 245.872 694.113C383.931 840.232 578.231 1092.23 603.524 1068.33C628.817 1044.43 518.963 713.391 380.903 567.272C242.843 421.153 144.917 299.199 119.624 323.097Z" fill="url(#paint7_linear_18_5440)"/>
</g>
<g filter="url(#filter2_f_18_5440)">
<path d="M90.8803 467.898C55.3993 502.415 84.2199 760.015 283.627 964.992C483.034 1169.97 760.479 1263.64 795.96 1229.13C831.441 1194.61 611.522 1044.97 412.115 839.995C212.708 635.018 126.361 433.381 90.8803 467.898Z" fill="url(#paint8_linear_18_5440)"/>
</g>
</g>
<defs>
<filter id="filter0_f_18_5440" x="153.465" y="666.141" width="1483.11" height="949.857" filterUnits="userSpaceOnUse" color-interpolation-filters="sRGB">
<feFlood flood-opacity="0" result="BackgroundImageFix"/>
<feBlend mode="normal" in="SourceGraphic" in2="BackgroundImageFix" result="shape"/>
<feGaussianBlur stdDeviation="109.304" result="effect1_foregroundBlur_18_5440"/>
</filter>
<filter id="filter1_f_18_5440" x="-44.4109" y="166.417" width="805.25" height="1057.17" filterUnits="userSpaceOnUse" color-interpolation-filters="sRGB">
<feFlood flood-opacity="0" result="BackgroundImageFix"/>
<feBlend mode="normal" in="SourceGraphic" in2="BackgroundImageFix" result="shape"/>
<feGaussianBlur stdDeviation="76.8362" result="effect1_foregroundBlur_18_5440"/>
</filter>
<filter id="filter2_f_18_5440" x="-140.712" y="245.411" width="1159.07" height="1209.34" filterUnits="userSpaceOnUse" color-interpolation-filters="sRGB">
<feFlood flood-opacity="0" result="BackgroundImageFix"/>
<feBlend mode="normal" in="SourceGraphic" in2="BackgroundImageFix" result="shape"/>
<feGaussianBlur stdDeviation="109.304" result="effect1_foregroundBlur_18_5440"/>
</filter>
<linearGradient id="paint0_linear_18_5440" x1="756.847" y1="422.237" x2="557.83" y2="1289.43" gradientUnits="userSpaceOnUse">
<stop stop-color="white"/>
<stop offset="0.5" stop-color="#8C83F6"/>
<stop offset="1" stop-color="white"/>
</linearGradient>
<linearGradient id="paint1_linear_18_5440" x1="731.194" y1="480.272" x2="532.178" y2="1347.46" gradientUnits="userSpaceOnUse">
<stop stop-color="white"/>
<stop offset="0.5" stop-color="#8C83F6"/>
<stop offset="1" stop-color="white"/>
</linearGradient>
<linearGradient id="paint2_linear_18_5440" x1="797.417" y1="367.625" x2="598.401" y2="1234.81" gradientUnits="userSpaceOnUse">
<stop stop-color="white"/>
<stop offset="0.5" stop-color="#8C83F6"/>
<stop offset="1" stop-color="white"/>
</linearGradient>
<linearGradient id="paint3_linear_18_5440" x1="837.988" y1="313.012" x2="638.972" y2="1180.2" gradientUnits="userSpaceOnUse">
<stop stop-color="white"/>
<stop offset="0.5" stop-color="#8C83F6"/>
<stop offset="1" stop-color="white"/>
</linearGradient>
<linearGradient id="paint4_linear_18_5440" x1="878.556" y1="258.401" x2="679.54" y2="1125.59" gradientUnits="userSpaceOnUse">
<stop stop-color="white"/>
<stop offset="0.5" stop-color="#8C83F6"/>
<stop offset="1" stop-color="white"/>
</linearGradient>
<linearGradient id="paint5_linear_18_5440" x1="919.125" y1="203.788" x2="720.109" y2="1070.98" gradientUnits="userSpaceOnUse">
<stop stop-color="white"/>
<stop offset="0.5" stop-color="#8C83F6"/>
<stop offset="1" stop-color="white"/>
</linearGradient>
<linearGradient id="paint6_linear_18_5440" x1="1057.6" y1="1249.36" x2="113.351" y2="824.113" gradientUnits="userSpaceOnUse">
<stop stop-color="#C5C3F3"/>
<stop offset="1" stop-color="#B3C4F6"/>
</linearGradient>
<linearGradient id="paint7_linear_18_5440" x1="399.104" y1="667.24" x2="-100.855" y2="138.097" gradientUnits="userSpaceOnUse">
<stop stop-color="#E4EEFA"/>
<stop offset="1" stop-color="#EBECFA"/>
</linearGradient>
<linearGradient id="paint8_linear_18_5440" x1="393.762" y1="1001.31" x2="-328.355" y2="259.023" gradientUnits="userSpaceOnUse">
<stop stop-color="#EAE4F4"/>
<stop offset="1" stop-color="#E6DFF3"/>
</linearGradient>
</defs>
</svg>
