<svg width="1440" height="800" viewBox="0 0 1440 800" fill="none" xmlns="http://www.w3.org/2000/svg">
<g opacity="0.7">
<path d="M1631.82 272.317C1348.9 252.368 1054.6 524.226 740.3 574.392C244.493 653.529 -57.8038 209.117 -170.96 362.302" stroke="url(#paint0_linear_72_3460)" stroke-width="2.09174" stroke-miterlimit="10"/>
<path d="M1654.81 331.458C1371.89 311.509 1077.59 583.367 763.291 633.533C267.485 712.67 -34.8126 268.258 -147.968 421.443" stroke="url(#paint1_linear_72_3460)" stroke-width="2.09174" stroke-miterlimit="10"/>
<path d="M1621.78 205.029C1338.86 185.08 1044.56 456.938 730.263 507.104C234.457 586.241 -67.8405 141.829 -180.996 295.014" stroke="url(#paint2_linear_72_3460)" stroke-width="2.09174" stroke-miterlimit="10"/>
<path d="M1611.75 137.741C1328.83 117.792 1034.53 389.65 720.227 439.816C224.421 518.953 -77.8766 74.5407 -191.032 227.726" stroke="url(#paint3_linear_72_3460)" stroke-width="2.09174" stroke-miterlimit="10"/>
<path d="M1601.71 70.4539C1318.79 50.5049 1024.49 322.363 710.19 372.529C214.383 451.666 -87.9142 7.25388 -201.07 160.439" stroke="url(#paint4_linear_72_3460)" stroke-width="2.09174" stroke-miterlimit="10"/>
<path d="M1591.67 3.16675C1308.75 -16.7822 1014.45 255.076 700.152 305.242C204.345 384.379 -97.9518 -60.0332 -211.108 93.1516" stroke="url(#paint5_linear_72_3460)" stroke-width="2.09174" stroke-miterlimit="10"/>
<g opacity="0.4" filter="url(#filter0_f_72_3460)">
<path d="M555.159 543.142C572.775 589.403 945.813 497.519 1213.06 395.751C1480.31 293.982 1654.4 194.524 1636.78 148.263C1619.17 102.003 1416.52 126.459 1149.27 228.227C882.02 329.996 537.543 496.882 555.159 543.142Z" fill="url(#paint6_linear_72_3460)"/>
</g>
<g filter="url(#filter1_f_72_3460)">
<path d="M-28.1221 319.436C-29.0531 354.22 122.819 486.574 323.772 491.952C524.726 497.33 840.37 537.625 841.301 502.84C842.232 468.056 530.221 312.149 329.268 306.771C128.314 301.393 -27.1912 284.651 -28.1221 319.436Z" fill="url(#paint7_linear_72_3460)"/>
</g>
<g filter="url(#filter2_f_72_3460)">
<path d="M54.1372 442.019C53.5344 491.516 256.322 652.965 542.271 656.447C828.219 659.929 1090.43 529.566 1091.04 480.069C1091.64 430.572 830.402 480.685 544.454 477.202C258.505 473.72 54.74 392.522 54.1372 442.019Z" fill="url(#paint8_linear_72_3460)"/>
</g>
</g>
<defs>
<filter id="filter0_f_72_3460" x="335.903" y="-92.8148" width="1520.71" height="866.869" filterUnits="userSpaceOnUse" color-interpolation-filters="sRGB">
<feFlood flood-opacity="0" result="BackgroundImageFix"/>
<feBlend mode="normal" in="SourceGraphic" in2="BackgroundImageFix" result="shape"/>
<feGaussianBlur stdDeviation="109.304" result="effect1_foregroundBlur_72_3460"/>
</filter>
<filter id="filter1_f_72_3460" x="-181.799" y="144.332" width="1176.77" height="526.188" filterUnits="userSpaceOnUse" color-interpolation-filters="sRGB">
<feFlood flood-opacity="0" result="BackgroundImageFix"/>
<feBlend mode="normal" in="SourceGraphic" in2="BackgroundImageFix" result="shape"/>
<feGaussianBlur stdDeviation="76.8362" result="effect1_foregroundBlur_72_3460"/>
</filter>
<filter id="filter2_f_72_3460" x="-164.472" y="207.463" width="1474.12" height="667.66" filterUnits="userSpaceOnUse" color-interpolation-filters="sRGB">
<feFlood flood-opacity="0" result="BackgroundImageFix"/>
<feBlend mode="normal" in="SourceGraphic" in2="BackgroundImageFix" result="shape"/>
<feGaussianBlur stdDeviation="109.304" result="effect1_foregroundBlur_72_3460"/>
</filter>
<linearGradient id="paint0_linear_72_3460" x1="491.957" y1="-61.877" x2="965.628" y2="691.289" gradientUnits="userSpaceOnUse">
<stop stop-color="white"/>
<stop offset="0.5" stop-color="#8C83F6"/>
<stop offset="1" stop-color="white"/>
</linearGradient>
<linearGradient id="paint1_linear_72_3460" x1="514.948" y1="-2.73625" x2="988.62" y2="750.43" gradientUnits="userSpaceOnUse">
<stop stop-color="white"/>
<stop offset="0.5" stop-color="#8C83F6"/>
<stop offset="1" stop-color="white"/>
</linearGradient>
<linearGradient id="paint2_linear_72_3460" x1="481.92" y1="-129.165" x2="955.592" y2="624.001" gradientUnits="userSpaceOnUse">
<stop stop-color="white"/>
<stop offset="0.5" stop-color="#8C83F6"/>
<stop offset="1" stop-color="white"/>
</linearGradient>
<linearGradient id="paint3_linear_72_3460" x1="471.884" y1="-196.454" x2="945.556" y2="556.713" gradientUnits="userSpaceOnUse">
<stop stop-color="white"/>
<stop offset="0.5" stop-color="#8C83F6"/>
<stop offset="1" stop-color="white"/>
</linearGradient>
<linearGradient id="paint4_linear_72_3460" x1="461.847" y1="-263.74" x2="935.518" y2="489.426" gradientUnits="userSpaceOnUse">
<stop stop-color="white"/>
<stop offset="0.5" stop-color="#8C83F6"/>
<stop offset="1" stop-color="white"/>
</linearGradient>
<linearGradient id="paint5_linear_72_3460" x1="451.809" y1="-331.028" x2="925.48" y2="422.139" gradientUnits="userSpaceOnUse">
<stop stop-color="white"/>
<stop offset="0.5" stop-color="#8C83F6"/>
<stop offset="1" stop-color="white"/>
</linearGradient>
<linearGradient id="paint6_linear_72_3460" x1="1290.08" y1="309.049" x2="322.285" y2="677.584" gradientUnits="userSpaceOnUse">
<stop stop-color="#C5C3F3"/>
<stop offset="1" stop-color="#B3C4F6"/>
</linearGradient>
<linearGradient id="paint7_linear_72_3460" x1="412.918" y1="364.456" x2="-314.798" y2="344.98" gradientUnits="userSpaceOnUse">
<stop stop-color="#E4EEFA"/>
<stop offset="1" stop-color="#EBECFA"/>
</linearGradient>
<linearGradient id="paint8_linear_72_3460" x1="645.745" y1="604.086" x2="-389.766" y2="591.475" gradientUnits="userSpaceOnUse">
<stop stop-color="#EAE4F4"/>
<stop offset="1" stop-color="#E6DFF3"/>
</linearGradient>
</defs>
</svg>
