<svg width="1315" height="1315" viewBox="0 0 1315 1315" fill="none" xmlns="http://www.w3.org/2000/svg">
<path d="M657.5 1160C379.977 1160 155 935.023 155 657.5C155 379.977 379.977 155 657.5 155C935.023 155 1160 379.977 1160 657.5C1160 935.023 935.023 1160 657.5 1160Z" fill="url(#paint0_linear_33_32565)"/>
<path d="M1244.43 668C1238.85 668 1234.33 663.523 1234.33 658C1234.33 652.477 1238.85 648 1244.43 648C1250 648 1254.52 652.477 1254.52 658C1254.52 663.523 1250 668 1244.43 668Z" fill="white"/>
<path d="M650.838 1257C645.263 1257 640.743 1252.52 640.743 1247C640.743 1241.48 645.263 1237 650.838 1237C656.413 1237 660.933 1241.48 660.933 1247C660.933 1252.52 656.413 1257 650.838 1257Z" fill="white"/>
<path d="M1082.91 262C1077.33 262 1072.81 257.523 1072.81 252C1072.81 246.477 1077.33 242 1082.91 242C1088.48 242 1093 246.477 1093 252C1093 257.523 1088.48 262 1082.91 262Z" fill="white"/>
<path d="M245.015 1091C239.44 1091 234.92 1086.52 234.92 1081C234.92 1075.48 239.44 1071 245.015 1071C250.591 1071 255.11 1075.48 255.11 1081C255.11 1086.52 250.591 1091 245.015 1091Z" fill="white"/>
<path d="M1082.91 1071C1077.33 1071 1072.81 1066.52 1072.81 1061C1072.81 1055.48 1077.33 1051 1082.91 1051C1088.48 1051 1093 1055.48 1093 1061C1093 1066.52 1088.48 1071 1082.91 1071Z" fill="white"/>
<path d="M650.838 82.0002C645.263 82.0002 640.743 77.523 640.743 72.0002C640.743 66.4773 645.263 62.0002 650.838 62.0002C656.413 62.0002 660.933 66.4773 660.933 72.0002C660.933 77.523 656.413 82.0002 650.838 82.0002Z" fill="white"/>
<path d="M609.123 23V6.2H614.907C615.811 6.2 616.627 6.424 617.355 6.872C618.091 7.32 618.675 7.924 619.107 8.684C619.547 9.444 619.767 10.284 619.767 11.204C619.767 12.14 619.543 12.988 619.095 13.748C618.655 14.5 618.067 15.1 617.331 15.548C616.595 15.996 615.787 16.22 614.907 16.22H611.619V23H609.123ZM611.619 13.724H614.655C615.135 13.724 615.571 13.604 615.963 13.364C616.363 13.124 616.679 12.804 616.911 12.404C617.151 12.004 617.271 11.552 617.271 11.048C617.271 10.544 617.151 10.092 616.911 9.692C616.679 9.284 616.363 8.964 615.963 8.732C615.571 8.492 615.135 8.372 614.655 8.372H611.619V13.724ZM629.954 23.312C628.818 23.312 627.75 23.088 626.75 22.64C625.75 22.184 624.87 21.56 624.11 20.768C623.358 19.968 622.766 19.04 622.334 17.984C621.91 16.928 621.698 15.8 621.698 14.6C621.698 13.4 621.91 12.272 622.334 11.216C622.766 10.16 623.358 9.236 624.11 8.444C624.87 7.644 625.75 7.02 626.75 6.572C627.75 6.116 628.818 5.888 629.954 5.888C631.314 5.888 632.566 6.204 633.71 6.836C634.854 7.468 635.802 8.308 636.554 9.356L634.334 10.544C633.814 9.888 633.17 9.364 632.402 8.972C631.634 8.58 630.818 8.384 629.954 8.384C629.154 8.384 628.406 8.548 627.71 8.876C627.014 9.204 626.402 9.652 625.874 10.22C625.346 10.788 624.934 11.448 624.638 12.2C624.342 12.952 624.194 13.752 624.194 14.6C624.194 15.456 624.342 16.26 624.638 17.012C624.934 17.756 625.346 18.416 625.874 18.992C626.41 19.56 627.026 20.008 627.722 20.336C628.418 20.656 629.162 20.816 629.954 20.816C630.834 20.816 631.654 20.62 632.414 20.228C633.182 19.828 633.822 19.3 634.334 18.644L636.554 19.856C635.802 20.904 634.854 21.744 633.71 22.376C632.566 23 631.314 23.312 629.954 23.312ZM639.249 23V6.2H641.745V23L639.249 23ZM644.982 14.552H652.662V17.048H644.982V14.552ZM655.553 23V6.2H661.109C662.269 6.2 663.357 6.42 664.373 6.86C665.389 7.292 666.281 7.896 667.049 8.672C667.817 9.44 668.417 10.332 668.849 11.348C669.289 12.356 669.509 13.44 669.509 14.6C669.509 15.76 669.289 16.848 668.849 17.864C668.417 18.872 667.817 19.764 667.049 20.54C666.281 21.308 665.389 21.912 664.373 22.352C663.357 22.784 662.269 23 661.109 23H655.553ZM658.049 20.504H661.109C661.925 20.504 662.685 20.352 663.389 20.048C664.101 19.744 664.729 19.32 665.273 18.776C665.825 18.232 666.253 17.604 666.557 16.892C666.861 16.18 667.013 15.416 667.013 14.6C667.013 13.784 666.861 13.02 666.557 12.308C666.253 11.596 665.825 10.968 665.273 10.424C664.729 9.88 664.101 9.456 663.389 9.152C662.685 8.848 661.925 8.696 661.109 8.696H658.049V20.504ZM677.759 23.312C676.839 23.312 675.955 23.168 675.107 22.88C674.259 22.592 673.519 22.18 672.887 21.644C672.255 21.1 671.803 20.456 671.531 19.712L673.871 18.836C674.007 19.22 674.267 19.564 674.651 19.868C675.043 20.164 675.507 20.396 676.043 20.564C676.587 20.732 677.159 20.816 677.759 20.816C678.399 20.816 678.999 20.712 679.559 20.504C680.127 20.296 680.583 20.008 680.927 19.64C681.279 19.272 681.455 18.84 681.455 18.344C681.455 17.832 681.271 17.412 680.903 17.084C680.543 16.756 680.079 16.496 679.511 16.304C678.951 16.112 678.367 15.968 677.759 15.872C676.583 15.68 675.527 15.4 674.591 15.032C673.663 14.664 672.927 14.148 672.383 13.484C671.847 12.82 671.579 11.956 671.579 10.892C671.579 9.892 671.863 9.02 672.431 8.276C673.007 7.532 673.763 6.956 674.699 6.548C675.643 6.132 676.663 5.924 677.759 5.924C678.663 5.924 679.535 6.068 680.375 6.356C681.223 6.636 681.967 7.048 682.607 7.592C683.255 8.128 683.719 8.78 683.999 9.548L681.635 10.4C681.499 10.008 681.239 9.668 680.855 9.38C680.471 9.084 680.007 8.852 679.463 8.684C678.927 8.516 678.359 8.432 677.759 8.432C677.119 8.424 676.519 8.528 675.959 8.744C675.407 8.952 674.955 9.24 674.603 9.608C674.251 9.976 674.075 10.404 674.075 10.892C674.075 11.492 674.239 11.948 674.567 12.26C674.895 12.572 675.335 12.804 675.887 12.956C676.447 13.1 677.071 13.232 677.759 13.352C678.863 13.528 679.883 13.82 680.819 14.228C681.763 14.636 682.519 15.18 683.087 15.86C683.663 16.532 683.951 17.36 683.951 18.344C683.951 19.336 683.663 20.208 683.087 20.96C682.519 21.704 681.763 22.284 680.819 22.7C679.883 23.108 678.863 23.312 677.759 23.312ZM692.619 23.312C691.699 23.312 690.815 23.168 689.967 22.88C689.119 22.592 688.379 22.18 687.747 21.644C687.115 21.1 686.663 20.456 686.391 19.712L688.731 18.836C688.867 19.22 689.127 19.564 689.511 19.868C689.903 20.164 690.367 20.396 690.903 20.564C691.447 20.732 692.019 20.816 692.619 20.816C693.259 20.816 693.859 20.712 694.419 20.504C694.987 20.296 695.443 20.008 695.787 19.64C696.139 19.272 696.315 18.84 696.315 18.344C696.315 17.832 696.131 17.412 695.763 17.084C695.403 16.756 694.939 16.496 694.371 16.304C693.811 16.112 693.227 15.968 692.619 15.872C691.443 15.68 690.387 15.4 689.451 15.032C688.523 14.664 687.787 14.148 687.243 13.484C686.707 12.82 686.439 11.956 686.439 10.892C686.439 9.892 686.723 9.02 687.291 8.276C687.867 7.532 688.623 6.956 689.559 6.548C690.503 6.132 691.523 5.924 692.619 5.924C693.523 5.924 694.395 6.068 695.235 6.356C696.083 6.636 696.827 7.048 697.467 7.592C698.115 8.128 698.579 8.78 698.859 9.548L696.495 10.4C696.359 10.008 696.099 9.668 695.715 9.38C695.331 9.084 694.867 8.852 694.323 8.684C693.787 8.516 693.219 8.432 692.619 8.432C691.979 8.424 691.379 8.528 690.819 8.744C690.267 8.952 689.815 9.24 689.463 9.608C689.111 9.976 688.935 10.404 688.935 10.892C688.935 11.492 689.099 11.948 689.427 12.26C689.755 12.572 690.195 12.804 690.747 12.956C691.307 13.1 691.931 13.232 692.619 13.352C693.723 13.528 694.743 13.82 695.679 14.228C696.623 14.636 697.379 15.18 697.947 15.86C698.523 16.532 698.811 17.36 698.811 18.344C698.811 19.336 698.523 20.208 697.947 20.96C697.379 21.704 696.623 22.284 695.679 22.7C694.743 23.108 693.723 23.312 692.619 23.312Z" fill="white"/>
<path d="M1094.7 211.623C1093.87 210.801 1093.25 209.878 1092.86 208.853C1092.47 207.829 1092.29 206.77 1092.33 205.678C1092.37 204.586 1092.62 203.519 1093.07 202.477C1093.52 201.441 1094.17 200.504 1095.02 199.665C1095.91 198.781 1096.89 198.125 1097.96 197.698C1099.03 197.27 1100.12 197.056 1101.22 197.056C1102.33 197.05 1103.39 197.244 1104.4 197.638C1105.42 198.038 1106.31 198.624 1107.09 199.395C1107.97 200.268 1108.62 201.309 1109.02 202.52C1109.42 203.73 1109.52 205.039 1109.3 206.447L1106.85 205.729C1106.96 204.817 1106.87 203.961 1106.58 203.161C1106.3 202.368 1105.88 201.689 1105.31 201.126C1104.76 200.58 1104.12 200.175 1103.4 199.91C1102.69 199.64 1101.94 199.516 1101.15 199.539C1100.37 199.555 1099.6 199.722 1098.84 200.037C1098.09 200.352 1097.4 200.822 1096.77 201.447C1096.16 202.05 1095.69 202.719 1095.37 203.457C1095.05 204.2 1094.88 204.957 1094.85 205.729C1094.83 206.5 1094.96 207.243 1095.23 207.958C1095.5 208.679 1095.92 209.321 1096.49 209.884C1096.91 210.3 1097.38 210.632 1097.9 210.88C1098.43 211.128 1098.98 211.291 1099.56 211.37C1100.15 211.449 1100.74 211.438 1101.35 211.336C1101.95 211.235 1102.54 211.043 1103.12 210.762L1100.59 208.254L1102.16 206.7L1106.77 211.269C1105.93 212.124 1104.98 212.772 1103.92 213.211C1102.87 213.656 1101.79 213.895 1100.67 213.929C1099.57 213.963 1098.5 213.788 1097.47 213.405C1096.43 213.022 1095.51 212.428 1094.7 211.623ZM1102.39 218.805L1114.33 206.982L1116.1 208.738L1105.94 218.805L1111.08 223.897L1109.3 225.654L1102.39 218.805ZM1111.18 227.514L1123.12 215.691L1127.35 219.888C1127.97 220.496 1128.4 221.169 1128.64 221.906C1128.89 222.65 1128.93 223.398 1128.74 224.153C1128.57 224.907 1128.16 225.608 1127.51 226.256C1127.19 226.571 1126.83 226.83 1126.42 227.033C1126.01 227.235 1125.59 227.359 1125.17 227.404C1124.75 227.449 1124.36 227.387 1124 227.218C1124.27 227.669 1124.4 228.13 1124.4 228.603C1124.42 229.076 1124.34 229.538 1124.17 229.988C1124 230.439 1123.77 230.858 1123.49 231.247C1123.22 231.641 1122.93 231.987 1122.63 232.285C1121.99 232.916 1121.27 233.327 1120.47 233.518C1119.66 233.71 1118.85 233.693 1118.04 233.468C1117.25 233.242 1116.54 232.823 1115.92 232.209L1111.18 227.514ZM1114.49 227.75L1117.29 230.52C1117.65 230.881 1118.07 231.117 1118.55 231.23C1119.03 231.348 1119.52 231.337 1120.01 231.196C1120.51 231.05 1120.97 230.776 1121.37 230.377C1121.72 230.028 1121.97 229.611 1122.1 229.127C1122.25 228.637 1122.26 228.147 1122.15 227.657C1122.05 227.173 1121.82 226.751 1121.45 226.391L1118.66 223.621L1114.49 227.75ZM1120.17 222.126L1122.44 224.381C1122.91 224.842 1123.45 225.099 1124.07 225.149C1124.69 225.2 1125.25 224.98 1125.74 224.491C1126.27 223.967 1126.5 223.41 1126.43 222.818C1126.36 222.222 1126.09 221.692 1125.62 221.231L1123.35 218.976L1120.17 222.126ZM1136.29 228.74L1138.36 230.792L1130.77 246.914L1128.89 245.056L1130.33 241.99L1124.99 236.695L1121.9 238.131L1120.02 236.264L1136.29 228.74ZM1127.42 235.589L1131.45 239.583L1134.97 232.093L1127.42 235.589Z" fill="white"/>
<path d="M1308.8 636.86V639.356H1292V636.86H1299.75V629.264H1292V626.768H1308.8V629.264H1302.25V636.86H1308.8ZM1292 642.597H1308.8V645.093H1292V642.597ZM1292 648.331H1308.8V654.115C1308.8 655.019 1308.58 655.835 1308.13 656.563C1307.68 657.299 1307.08 657.883 1306.32 658.315C1305.56 658.755 1304.72 658.975 1303.8 658.975C1302.86 658.975 1302.01 658.751 1301.25 658.303C1300.5 657.863 1299.9 657.275 1299.45 656.539C1299 655.803 1298.78 654.995 1298.78 654.115V650.827H1292V648.331ZM1301.28 650.827V653.863C1301.28 654.343 1301.4 654.779 1301.64 655.171C1301.88 655.571 1302.2 655.887 1302.6 656.119C1303 656.359 1303.45 656.479 1303.95 656.479C1304.46 656.479 1304.91 656.359 1305.31 656.119C1305.72 655.887 1306.04 655.571 1306.27 655.171C1306.51 654.779 1306.63 654.343 1306.63 653.863V650.827H1301.28ZM1308.8 664.341V667.257L1292 673.365V670.725L1295.19 669.561V662.037L1292 660.885V658.233L1308.8 664.341ZM1297.69 662.961V668.637L1305.49 665.793L1297.69 662.961ZM1308.8 680.677V683.593L1292 689.701V687.061L1295.19 685.897V678.373L1292 677.221V674.569L1308.8 680.677ZM1297.69 679.297V684.973L1305.49 682.129L1297.69 679.297Z" fill="#FCF9FF"/>
<path d="M705.937 1293.71C707.169 1293.71 708.243 1294.01 709.16 1294.62C710.069 1295.22 710.777 1296.02 711.283 1297.04C711.781 1298.06 712.031 1299.18 712.031 1300.42V1309.4H709.743V1300.42C709.743 1299.62 709.596 1298.88 709.303 1298.2C709.002 1297.53 708.569 1297 708.005 1296.6C707.433 1296.2 706.743 1296 705.937 1296C705.108 1296 704.411 1296.2 703.847 1296.6C703.282 1297 702.857 1297.53 702.571 1298.2C702.277 1298.88 702.131 1299.62 702.131 1300.42V1309.4H699.843V1300.42C699.843 1299.49 699.986 1298.62 700.272 1297.81C700.558 1297 700.968 1296.29 701.504 1295.67C702.039 1295.06 702.681 1294.58 703.429 1294.23C704.177 1293.89 705.013 1293.71 705.937 1293.71ZM691.718 1293.71C692.561 1293.71 693.371 1293.85 694.149 1294.11C694.926 1294.37 695.604 1294.75 696.184 1295.24C696.763 1295.74 697.177 1296.33 697.427 1297.01L695.282 1297.82C695.157 1297.47 694.919 1297.15 694.567 1296.87C694.207 1296.6 693.782 1296.39 693.291 1296.23C692.792 1296.08 692.268 1296 691.718 1296C691.131 1296 690.581 1296.1 690.068 1296.29C689.547 1296.48 689.129 1296.74 688.814 1297.08C688.491 1297.42 688.33 1297.81 688.33 1298.27C688.33 1298.74 688.498 1299.12 688.836 1299.42C689.166 1299.72 689.591 1299.96 690.112 1300.14C690.625 1300.31 691.16 1300.45 691.718 1300.53C692.796 1300.71 693.764 1300.97 694.622 1301.3C695.472 1301.64 696.147 1302.11 696.646 1302.72C697.137 1303.33 697.383 1304.12 697.383 1305.1C697.383 1306.02 697.122 1306.82 696.602 1307.5C696.074 1308.18 695.381 1308.71 694.523 1309.08C693.657 1309.46 692.722 1309.65 691.718 1309.65C690.889 1309.65 690.09 1309.52 689.32 1309.26C688.542 1309 687.86 1308.62 687.274 1308.12C686.68 1307.63 686.254 1307.04 685.998 1306.33L688.165 1305.55C688.289 1305.91 688.528 1306.22 688.88 1306.49C689.232 1306.76 689.657 1306.97 690.156 1307.12C690.647 1307.28 691.168 1307.35 691.718 1307.35C692.304 1307.36 692.854 1307.27 693.368 1307.07C693.874 1306.88 694.288 1306.61 694.611 1306.28C694.933 1305.94 695.095 1305.55 695.095 1305.1C695.095 1304.55 694.944 1304.13 694.644 1303.85C694.343 1303.56 693.94 1303.35 693.434 1303.21C692.92 1303.08 692.348 1302.95 691.718 1302.84C690.706 1302.68 689.771 1302.42 688.913 1302.04C688.047 1301.67 687.354 1301.17 686.834 1300.55C686.306 1299.93 686.042 1299.17 686.042 1298.27C686.042 1297.36 686.306 1296.56 686.834 1295.87C687.354 1295.19 688.047 1294.66 688.913 1294.28C689.771 1293.9 690.706 1293.71 691.718 1293.71ZM679.522 1309.4H676.849L671.25 1294H673.67L674.737 1296.93H681.634L682.69 1294H685.121L679.522 1309.4ZM680.787 1299.21H675.584L678.191 1306.36L680.787 1299.21ZM663.755 1294V1309.4H658.453C657.625 1309.4 656.877 1309.19 656.209 1308.78C655.535 1308.37 654.999 1307.82 654.603 1307.12C654.2 1306.43 653.998 1305.66 653.998 1304.81C653.998 1303.96 654.204 1303.18 654.614 1302.48C655.018 1301.79 655.557 1301.24 656.231 1300.83C656.906 1300.42 657.647 1300.22 658.453 1300.22H661.467V1294H663.755ZM661.467 1302.5H658.684C658.244 1302.5 657.845 1302.61 657.485 1302.83C657.119 1303.05 656.829 1303.35 656.616 1303.71C656.396 1304.08 656.286 1304.49 656.286 1304.96C656.286 1305.42 656.396 1305.83 656.616 1306.2C656.829 1306.57 657.119 1306.87 657.485 1307.08C657.845 1307.3 658.244 1307.41 658.684 1307.41H661.467V1302.5ZM652.197 1294V1305H649.909V1303.83C649.528 1304.29 649.058 1304.65 648.501 1304.91C647.944 1305.18 647.342 1305.31 646.697 1305.31C646.286 1305.31 645.879 1305.25 645.476 1305.14L646.389 1302.83C646.675 1302.94 646.961 1303 647.247 1303C647.731 1303 648.175 1302.88 648.578 1302.64C648.981 1302.4 649.304 1302.08 649.546 1301.68C649.788 1301.27 649.909 1300.83 649.909 1300.34V1294H652.197ZM644.205 1305H641.917V1294H644.205V1305ZM643.039 1306.6C643.391 1306.6 643.684 1306.71 643.919 1306.94C644.153 1307.16 644.271 1307.45 644.271 1307.79C644.271 1308.13 644.153 1308.41 643.919 1308.64C643.684 1308.88 643.394 1308.99 643.05 1308.99C642.712 1308.99 642.426 1308.88 642.192 1308.64C641.957 1308.41 641.84 1308.13 641.84 1307.79C641.84 1307.45 641.957 1307.16 642.192 1306.94C642.419 1306.71 642.701 1306.6 643.039 1306.6ZM633.272 1294H636.209L640.224 1305.02H637.782L634.746 1296.64L631.699 1305.02H629.268L633.272 1294ZM619.447 1305H617.159V1294H619.458L619.546 1295.6C619.869 1295.03 620.305 1294.58 620.855 1294.23C621.405 1293.89 622.054 1293.71 622.802 1293.71C623.609 1293.71 624.368 1293.86 625.079 1294.17C625.791 1294.47 626.418 1294.9 626.96 1295.44C627.496 1295.98 627.914 1296.61 628.214 1297.31C628.515 1298.02 628.665 1298.79 628.665 1299.6C628.665 1300.38 628.519 1301.12 628.225 1301.81C627.932 1302.51 627.525 1303.12 627.004 1303.64C626.484 1304.16 625.882 1304.56 625.2 1304.86C624.511 1305.16 623.774 1305.31 622.989 1305.31C622.19 1305.31 621.486 1305.12 620.877 1304.76C620.261 1304.4 619.752 1303.94 619.348 1303.37L619.447 1305ZM622.857 1295.93C622.212 1295.93 621.647 1296.08 621.163 1296.4C620.679 1296.72 620.305 1297.15 620.041 1297.7C619.77 1298.24 619.634 1298.84 619.634 1299.5C619.634 1300.17 619.77 1300.77 620.041 1301.32C620.313 1301.86 620.69 1302.29 621.174 1302.6C621.651 1302.92 622.212 1303.09 622.857 1303.09C623.495 1303.09 624.078 1302.92 624.606 1302.6C625.134 1302.28 625.552 1301.85 625.86 1301.3C626.168 1300.76 626.322 1300.16 626.322 1299.5C626.322 1298.83 626.165 1298.23 625.849 1297.69C625.527 1297.15 625.105 1296.72 624.584 1296.4C624.056 1296.08 623.481 1295.93 622.857 1295.93ZM607.996 1297.12L605.95 1296.01C606.449 1295.32 607.083 1294.76 607.853 1294.34C608.616 1293.92 609.445 1293.71 610.339 1293.71C611.351 1293.71 612.275 1293.97 613.111 1294.5C613.94 1295.02 614.604 1295.71 615.102 1296.59C615.594 1297.47 615.839 1298.44 615.839 1299.5C615.839 1300.31 615.696 1301.06 615.41 1301.76C615.124 1302.46 614.732 1303.08 614.233 1303.6C613.727 1304.14 613.141 1304.56 612.473 1304.86C611.806 1305.16 611.095 1305.31 610.339 1305.31C609.445 1305.31 608.616 1305.1 607.853 1304.68C607.083 1304.26 606.449 1303.7 605.95 1303L607.996 1301.89C608.304 1302.25 608.664 1302.53 609.074 1302.72C609.485 1302.92 609.907 1303.02 610.339 1303.02C610.941 1303.02 611.487 1302.86 611.978 1302.53C612.462 1302.2 612.847 1301.77 613.133 1301.24C613.412 1300.71 613.551 1300.13 613.551 1299.5C613.551 1298.88 613.408 1298.3 613.122 1297.76C612.836 1297.23 612.451 1296.81 611.967 1296.49C611.476 1296.16 610.933 1296 610.339 1296C609.885 1296 609.452 1296.1 609.041 1296.31C608.631 1296.52 608.282 1296.79 607.996 1297.12ZM597.117 1305H594.675L600.703 1288.5H603.134L601.143 1294L605.092 1305H602.595L599.999 1297.14L597.117 1305Z" fill="#FBF9FF"/>
<path d="M1134.13 1083.76C1134.95 1082.93 1135.88 1082.32 1136.91 1081.92C1137.94 1081.54 1139 1081.36 1140.1 1081.4C1141.2 1081.44 1142.27 1081.69 1143.32 1082.14C1144.36 1082.59 1145.3 1083.24 1146.14 1084.08C1147.03 1084.97 1147.69 1085.94 1148.12 1087.01C1148.55 1088.07 1148.76 1089.15 1148.76 1090.25C1148.77 1091.35 1148.58 1092.41 1148.18 1093.41C1147.78 1094.43 1147.19 1095.32 1146.41 1096.09C1145.54 1096.97 1144.49 1097.61 1143.27 1098.01C1142.06 1098.41 1140.74 1098.51 1139.33 1098.29L1140.05 1095.86C1140.97 1095.96 1141.83 1095.87 1142.63 1095.59C1143.43 1095.31 1144.11 1094.89 1144.67 1094.32C1145.22 1093.77 1145.63 1093.14 1145.9 1092.42C1146.17 1091.71 1146.29 1090.96 1146.27 1090.18C1146.25 1089.41 1146.09 1088.64 1145.77 1087.88C1145.45 1087.13 1144.98 1086.45 1144.35 1085.82C1143.75 1085.21 1143.07 1084.75 1142.33 1084.43C1141.59 1084.11 1140.83 1083.94 1140.05 1083.91C1139.28 1083.89 1138.53 1084.02 1137.81 1084.28C1137.09 1084.55 1136.44 1084.97 1135.88 1085.54C1135.46 1085.96 1135.12 1086.43 1134.87 1086.95C1134.63 1087.47 1134.46 1088.02 1134.38 1088.59C1134.3 1089.18 1134.31 1089.78 1134.42 1090.38C1134.52 1090.98 1134.71 1091.56 1134.99 1092.14L1137.51 1089.62L1139.07 1091.18L1134.48 1095.77C1133.62 1094.94 1132.97 1093.99 1132.53 1092.94C1132.09 1091.89 1131.84 1090.81 1131.81 1089.71C1131.78 1088.61 1131.95 1087.54 1132.34 1086.51C1132.72 1085.49 1133.32 1084.57 1134.13 1083.76ZM1126.91 1091.41L1138.79 1103.29L1134.86 1107.22C1134.04 1108.04 1133.12 1108.66 1132.09 1109.06C1131.06 1109.48 1130.01 1109.68 1128.91 1109.67C1127.83 1109.67 1126.77 1109.47 1125.75 1109.06C1124.73 1108.65 1123.8 1108.04 1122.98 1107.22C1122.16 1106.4 1121.55 1105.48 1121.14 1104.45C1120.73 1103.43 1120.53 1102.37 1120.52 1101.28C1120.52 1100.2 1120.73 1099.14 1121.13 1098.11C1121.55 1097.09 1122.16 1096.16 1122.98 1095.34L1126.91 1091.41ZM1126.91 1094.94L1124.75 1097.11C1124.17 1097.68 1123.74 1098.33 1123.46 1099.04C1123.17 1099.76 1123.03 1100.5 1123.03 1101.27C1123.02 1102.05 1123.16 1102.8 1123.45 1103.51C1123.74 1104.23 1124.17 1104.88 1124.75 1105.46C1125.32 1106.03 1125.97 1106.47 1126.69 1106.76C1127.41 1107.04 1128.16 1107.19 1128.93 1107.18C1129.7 1107.18 1130.44 1107.04 1131.16 1106.75C1131.88 1106.46 1132.52 1106.03 1133.1 1105.46L1135.26 1103.29L1126.91 1094.94ZM1115.59 1102.73L1127.47 1114.61L1123.38 1118.7C1122.74 1119.34 1122.01 1119.76 1121.18 1119.96C1120.34 1120.16 1119.5 1120.15 1118.66 1119.92C1117.81 1119.69 1117.06 1119.25 1116.41 1118.6C1115.75 1117.94 1115.3 1117.18 1115.08 1116.33C1114.86 1115.48 1114.85 1114.64 1115.06 1113.81C1115.26 1112.97 1115.67 1112.24 1116.3 1111.62L1118.62 1109.29L1113.83 1104.5L1115.59 1102.73ZM1120.39 1111.06L1118.24 1113.2C1117.9 1113.54 1117.68 1113.94 1117.57 1114.38C1117.46 1114.84 1117.46 1115.29 1117.58 1115.73C1117.69 1116.19 1117.93 1116.59 1118.28 1116.95C1118.64 1117.3 1119.04 1117.54 1119.5 1117.65C1119.95 1117.77 1120.4 1117.78 1120.84 1117.66C1121.29 1117.55 1121.68 1117.33 1122.02 1116.99L1124.17 1114.84L1120.39 1111.06ZM1106.44 1111.88L1118.32 1123.76L1113.95 1128.13C1113.31 1128.78 1112.57 1129.2 1111.74 1129.4C1110.91 1129.59 1110.07 1129.57 1109.24 1129.34C1108.4 1129.11 1107.65 1128.67 1107 1128.01C1106.44 1127.46 1106.04 1126.85 1105.79 1126.18C1105.54 1125.52 1105.43 1124.84 1105.49 1124.14C1105.53 1123.45 1105.72 1122.8 1106.05 1122.18L1098.23 1120.1L1100.28 1118.05L1107.85 1120.06L1109.47 1118.44L1104.68 1113.65L1106.44 1111.88ZM1111.24 1120.21L1108.82 1122.62C1108.48 1122.96 1108.26 1123.36 1108.15 1123.8C1108.04 1124.26 1108.04 1124.71 1108.16 1125.15C1108.28 1125.6 1108.51 1126 1108.87 1126.36C1109.23 1126.71 1109.63 1126.95 1110.08 1127.07C1110.53 1127.19 1110.98 1127.2 1111.43 1127.08C1111.87 1126.97 1112.27 1126.75 1112.6 1126.41L1115.02 1123.99L1111.24 1120.21Z" fill="white"/>
<path d="M233.923 1130.61L223.033 1141.5L216.274 1134.74L217.892 1133.12L223.033 1138.26L225.662 1135.63L221.524 1131.5L223.142 1129.88L227.28 1134.02L230.687 1130.61L225.546 1125.47L227.163 1123.85L233.923 1130.61ZM221.339 1117.62C222.21 1118.49 222.757 1119.46 222.98 1120.54C223.198 1121.61 223.128 1122.68 222.77 1123.75C222.402 1124.82 221.78 1125.8 220.903 1126.67L214.556 1133.02L212.938 1131.4L219.285 1125.06C219.856 1124.49 220.276 1123.86 220.545 1123.17C220.805 1122.49 220.877 1121.81 220.763 1121.12C220.639 1120.44 220.291 1119.81 219.721 1119.24C219.135 1118.65 218.502 1118.3 217.823 1118.18C217.139 1118.07 216.459 1118.14 215.785 1118.41C215.101 1118.68 214.473 1119.1 213.903 1119.67L207.556 1126.02L205.938 1124.4L212.285 1118.06C212.944 1117.4 213.662 1116.88 214.44 1116.51C215.212 1116.14 216.006 1115.93 216.82 1115.87C217.634 1115.81 218.427 1115.93 219.2 1116.21C219.972 1116.5 220.685 1116.97 221.339 1117.62ZM196.689 1115.15L194.799 1113.26L201.729 1098.42L203.44 1100.13L202.126 1102.95L207.003 1107.83L209.818 1106.5L211.537 1108.22L196.689 1115.15ZM204.786 1108.85L201.107 1105.17L197.894 1112.07L204.786 1108.85ZM200.131 1096.82L189.241 1107.71L187.623 1106.09L198.513 1095.2L200.131 1096.82ZM178.14 1096.6L176.25 1094.71L183.18 1079.87L184.891 1081.58L183.577 1084.4L188.453 1089.28L191.269 1087.96L192.988 1089.67L178.14 1096.6ZM186.237 1090.3L182.558 1086.62L179.345 1093.52L186.237 1090.3ZM175.104 1076.21L174.443 1073.98C175.288 1073.84 176.131 1073.89 176.971 1074.14C177.806 1074.38 178.539 1074.82 179.172 1075.45C179.888 1076.17 180.357 1077.01 180.58 1077.97C180.798 1078.92 180.774 1079.88 180.51 1080.85C180.235 1081.82 179.722 1082.68 178.97 1083.43C178.399 1084 177.767 1084.44 177.072 1084.73C176.372 1085.02 175.659 1085.18 174.933 1085.2C174.197 1085.22 173.486 1085.1 172.802 1084.84C172.117 1084.58 171.508 1084.19 170.974 1083.65C170.341 1083.02 169.903 1082.29 169.659 1081.45C169.41 1080.61 169.359 1079.77 169.504 1078.92L171.736 1079.58C171.695 1080.05 171.752 1080.5 171.907 1080.93C172.058 1081.36 172.286 1081.73 172.592 1082.03C173.017 1082.46 173.52 1082.73 174.101 1082.84C174.671 1082.96 175.247 1082.93 175.827 1082.75C176.398 1082.57 176.906 1082.26 177.352 1081.82C177.793 1081.38 178.101 1080.86 178.278 1080.28C178.449 1079.71 178.477 1079.14 178.363 1078.57C178.244 1077.99 177.974 1077.49 177.554 1077.07C177.233 1076.75 176.854 1076.52 176.419 1076.37C175.983 1076.23 175.545 1076.17 175.104 1076.21ZM164.195 1073.2L165.828 1074.84L171.996 1068.68L173.614 1070.3L167.446 1076.45L168.683 1077.69L167.065 1079.31L165.828 1078.07L163.394 1080.52L161.776 1078.9L164.21 1076.45L162.577 1074.82L164.195 1073.2Z" fill="white"/>
<circle cx="657.5" cy="657.5" r="586" stroke="#FEFEFE" stroke-opacity="0.25" stroke-width="3"/>
<defs>
<linearGradient id="paint0_linear_33_32565" x1="1160" y1="657.5" x2="155" y2="657.5" gradientUnits="userSpaceOnUse">
<stop stop-color="#3A379C"/>
<stop offset="0.5" stop-color="#8C70D2"/>
<stop offset="1" stop-color="#E4D5F4"/>
</linearGradient>
</defs>
</svg>
