<svg width="27" height="325" viewBox="0 0 27 325" fill="none" xmlns="http://www.w3.org/2000/svg">
<path d="M13.5 0L15.5046 11.4954L27 13.5L15.5046 15.5046L13.5 27L11.4954 15.5046L0 13.5L11.4954 11.4954L13.5 0Z" fill="url(#paint0_linear_3_2)"/>
<path d="M13.5 75L15.5046 86.4954L27 88.5L15.5046 90.5046L13.5 102L11.4954 90.5046L0 88.5L11.4954 86.4954L13.5 75Z" fill="url(#paint1_linear_3_2)"/>
<path d="M13.5 150L15.5046 161.495L27 163.5L15.5046 165.505L13.5 177L11.4954 165.505L0 163.5L11.4954 161.495L13.5 150Z" fill="url(#paint2_linear_3_2)"/>
<path d="M13.5 224L15.5046 235.495L27 237.5L15.5046 239.505L13.5 251L11.4954 239.505L0 237.5L11.4954 235.495L13.5 224Z" fill="url(#paint3_linear_3_2)"/>
<path d="M13.5 298L15.5046 309.495L27 311.5L15.5046 313.505L13.5 325L11.4954 313.505L0 311.5L11.4954 309.495L13.5 298Z" fill="url(#paint4_linear_3_2)"/>
<defs>
<linearGradient id="paint0_linear_3_2" x1="13.5" y1="0" x2="13.5" y2="27" gradientUnits="userSpaceOnUse">
<stop stop-color="white" stop-opacity="0"/>
<stop offset="0.5" stop-color="#CCC0FC"/>
<stop offset="1" stop-color="white" stop-opacity="0"/>
</linearGradient>
<linearGradient id="paint1_linear_3_2" x1="13.5" y1="75" x2="13.5" y2="102" gradientUnits="userSpaceOnUse">
<stop stop-color="white" stop-opacity="0"/>
<stop offset="0.5" stop-color="#CCC0FC"/>
<stop offset="1" stop-color="white" stop-opacity="0"/>
</linearGradient>
<linearGradient id="paint2_linear_3_2" x1="13.5" y1="150" x2="13.5" y2="177" gradientUnits="userSpaceOnUse">
<stop stop-color="white" stop-opacity="0"/>
<stop offset="0.5" stop-color="#CCC0FC"/>
<stop offset="1" stop-color="white" stop-opacity="0"/>
</linearGradient>
<linearGradient id="paint3_linear_3_2" x1="13.5" y1="224" x2="13.5" y2="251" gradientUnits="userSpaceOnUse">
<stop stop-color="white" stop-opacity="0"/>
<stop offset="0.5" stop-color="#CCC0FC"/>
<stop offset="1" stop-color="white" stop-opacity="0"/>
</linearGradient>
<linearGradient id="paint4_linear_3_2" x1="13.5" y1="298" x2="13.5" y2="325" gradientUnits="userSpaceOnUse">
<stop stop-color="white" stop-opacity="0"/>
<stop offset="0.5" stop-color="#CCC0FC"/>
<stop offset="1" stop-color="white" stop-opacity="0"/>
</linearGradient>
</defs>
</svg>
