<svg width="1440" height="536" viewBox="0 0 1440 536" fill="none" xmlns="http://www.w3.org/2000/svg">
<g clip-path="url(#clip0_3102_11488)">
<rect width="1440" height="536" fill="#F5F8FF"/>
<line x1="122.5" y1="478" x2="122.5" y2="-36" stroke="#F4EEF4"/>
<line x1="1320" y1="478.003" x2="1318.5" y2="-35.9976" stroke="#F4EEF4"/>
<path d="M122 330L124.524 344.476L139 347L124.524 349.524L122 364L119.476 349.524L105 347L119.476 344.476L122 330Z" fill="url(#paint0_linear_3102_11488)"/>
<path d="M422 330L424.524 344.476L439 347L424.524 349.524L422 364L419.476 349.524L405 347L419.476 344.476L422 330Z" fill="url(#paint1_linear_3102_11488)"/>
<path d="M721 330L723.524 344.476L738 347L723.524 349.524L721 364L718.476 349.524L704 347L718.476 344.476L721 330Z" fill="url(#paint2_linear_3102_11488)"/>
<path d="M1020 330L1022.52 344.476L1037 347L1022.52 349.524L1020 364L1017.48 349.524L1003 347L1017.48 344.476L1020 330Z" fill="url(#paint3_linear_3102_11488)"/>
<path d="M1319 330L1321.52 344.476L1336 347L1321.52 349.524L1319 364L1316.48 349.524L1302 347L1316.48 344.476L1319 330Z" fill="url(#paint4_linear_3102_11488)"/>
<path d="M122 460L124.524 474.476L139 477L124.524 479.524L122 494L119.476 479.524L105 477L119.476 474.476L122 460Z" fill="url(#paint5_linear_3102_11488)"/>
<path d="M422 460L424.524 474.476L439 477L424.524 479.524L422 494L419.476 479.524L405 477L419.476 474.476L422 460Z" fill="url(#paint6_linear_3102_11488)"/>
<path d="M721 460L723.524 474.476L738 477L723.524 479.524L721 494L718.476 479.524L704 477L718.476 474.476L721 460Z" fill="url(#paint7_linear_3102_11488)"/>
<path d="M1020 460L1022.52 474.476L1037 477L1022.52 479.524L1020 494L1017.48 479.524L1003 477L1017.48 474.476L1020 460Z" fill="url(#paint8_linear_3102_11488)"/>
<path d="M1319 460L1321.52 474.476L1336 477L1321.52 479.524L1319 494L1316.48 479.524L1302 477L1316.48 474.476L1319 460Z" fill="url(#paint9_linear_3102_11488)"/>
<path d="M122 200L124.524 214.476L139 217L124.524 219.524L122 234L119.476 219.524L105 217L119.476 214.476L122 200Z" fill="url(#paint10_linear_3102_11488)"/>
<path d="M422 200L424.524 214.476L439 217L424.524 219.524L422 234L419.476 219.524L405 217L419.476 214.476L422 200Z" fill="url(#paint11_linear_3102_11488)"/>
<path d="M721 200L723.524 214.476L738 217L723.524 219.524L721 234L718.476 219.524L704 217L718.476 214.476L721 200Z" fill="url(#paint12_linear_3102_11488)"/>
<path d="M1020 200L1022.52 214.476L1037 217L1022.52 219.524L1020 234L1017.48 219.524L1003 217L1017.48 214.476L1020 200Z" fill="url(#paint13_linear_3102_11488)"/>
<path d="M1319 200L1321.52 214.476L1336 217L1321.52 219.524L1319 234L1316.48 219.524L1302 217L1316.48 214.476L1319 200Z" fill="url(#paint14_linear_3102_11488)"/>
</g>
<defs>
<linearGradient id="paint0_linear_3102_11488" x1="122" y1="330" x2="122" y2="364" gradientUnits="userSpaceOnUse">
<stop stop-color="white" stop-opacity="0"/>
<stop offset="0.5" stop-color="#CCC0FC"/>
<stop offset="1" stop-color="white" stop-opacity="0"/>
</linearGradient>
<linearGradient id="paint1_linear_3102_11488" x1="422" y1="330" x2="422" y2="364" gradientUnits="userSpaceOnUse">
<stop stop-color="white" stop-opacity="0"/>
<stop offset="0.5" stop-color="#CCC0FC"/>
<stop offset="1" stop-color="white" stop-opacity="0"/>
</linearGradient>
<linearGradient id="paint2_linear_3102_11488" x1="721" y1="330" x2="721" y2="364" gradientUnits="userSpaceOnUse">
<stop stop-color="white" stop-opacity="0"/>
<stop offset="0.5" stop-color="#CCC0FC"/>
<stop offset="1" stop-color="white" stop-opacity="0"/>
</linearGradient>
<linearGradient id="paint3_linear_3102_11488" x1="1020" y1="330" x2="1020" y2="364" gradientUnits="userSpaceOnUse">
<stop stop-color="white" stop-opacity="0"/>
<stop offset="0.5" stop-color="#CCC0FC"/>
<stop offset="1" stop-color="white" stop-opacity="0"/>
</linearGradient>
<linearGradient id="paint4_linear_3102_11488" x1="1319" y1="330" x2="1319" y2="364" gradientUnits="userSpaceOnUse">
<stop stop-color="white" stop-opacity="0"/>
<stop offset="0.5" stop-color="#CCC0FC"/>
<stop offset="1" stop-color="white" stop-opacity="0"/>
</linearGradient>
<linearGradient id="paint5_linear_3102_11488" x1="122" y1="460" x2="122" y2="494" gradientUnits="userSpaceOnUse">
<stop stop-color="white" stop-opacity="0"/>
<stop offset="0.5" stop-color="#CCC0FC"/>
<stop offset="1" stop-color="white" stop-opacity="0"/>
</linearGradient>
<linearGradient id="paint6_linear_3102_11488" x1="422" y1="460" x2="422" y2="494" gradientUnits="userSpaceOnUse">
<stop stop-color="white" stop-opacity="0"/>
<stop offset="0.5" stop-color="#CCC0FC"/>
<stop offset="1" stop-color="white" stop-opacity="0"/>
</linearGradient>
<linearGradient id="paint7_linear_3102_11488" x1="721" y1="460" x2="721" y2="494" gradientUnits="userSpaceOnUse">
<stop stop-color="white" stop-opacity="0"/>
<stop offset="0.5" stop-color="#CCC0FC"/>
<stop offset="1" stop-color="white" stop-opacity="0"/>
</linearGradient>
<linearGradient id="paint8_linear_3102_11488" x1="1020" y1="460" x2="1020" y2="494" gradientUnits="userSpaceOnUse">
<stop stop-color="white" stop-opacity="0"/>
<stop offset="0.5" stop-color="#CCC0FC"/>
<stop offset="1" stop-color="white" stop-opacity="0"/>
</linearGradient>
<linearGradient id="paint9_linear_3102_11488" x1="1319" y1="460" x2="1319" y2="494" gradientUnits="userSpaceOnUse">
<stop stop-color="white" stop-opacity="0"/>
<stop offset="0.5" stop-color="#CCC0FC"/>
<stop offset="1" stop-color="white" stop-opacity="0"/>
</linearGradient>
<linearGradient id="paint10_linear_3102_11488" x1="122" y1="200" x2="122" y2="234" gradientUnits="userSpaceOnUse">
<stop stop-color="white" stop-opacity="0"/>
<stop offset="0.5" stop-color="#CCC0FC"/>
<stop offset="1" stop-color="white" stop-opacity="0"/>
</linearGradient>
<linearGradient id="paint11_linear_3102_11488" x1="422" y1="200" x2="422" y2="234" gradientUnits="userSpaceOnUse">
<stop stop-color="white" stop-opacity="0"/>
<stop offset="0.5" stop-color="#CCC0FC"/>
<stop offset="1" stop-color="white" stop-opacity="0"/>
</linearGradient>
<linearGradient id="paint12_linear_3102_11488" x1="721" y1="200" x2="721" y2="234" gradientUnits="userSpaceOnUse">
<stop stop-color="white" stop-opacity="0"/>
<stop offset="0.5" stop-color="#CCC0FC"/>
<stop offset="1" stop-color="white" stop-opacity="0"/>
</linearGradient>
<linearGradient id="paint13_linear_3102_11488" x1="1020" y1="200" x2="1020" y2="234" gradientUnits="userSpaceOnUse">
<stop stop-color="white" stop-opacity="0"/>
<stop offset="0.5" stop-color="#CCC0FC"/>
<stop offset="1" stop-color="white" stop-opacity="0"/>
</linearGradient>
<linearGradient id="paint14_linear_3102_11488" x1="1319" y1="200" x2="1319" y2="234" gradientUnits="userSpaceOnUse">
<stop stop-color="white" stop-opacity="0"/>
<stop offset="0.5" stop-color="#CCC0FC"/>
<stop offset="1" stop-color="white" stop-opacity="0"/>
</linearGradient>
<clipPath id="clip0_3102_11488">
<rect width="1440" height="536" fill="white"/>
</clipPath>
</defs>
</svg>
